<svg xmlns="http://www.w3.org/2000/svg" version="1.1" xmlns:xlink="http://www.w3.org/1999/xlink" xmlns:svgjs="http://svgjs.dev/svgjs" viewBox="0 0 12.779299309729371 3.0406191362722983"><g transform="matrix(1,0,0,1,2.9793882419955984,0.5146149631361494)"><g><path d=" M 1.5083639999999998 0.018875999999999893 L 1.5083639999999998 1.2286559999999997 L 1.1720279999999998 1.2286559999999997 L 1.1720279999999998 0.5611319999999999 L 0.9438 1.2286559999999997 L 0.662376 1.2286559999999997 L 0.432432 0.5559839999999998 L 0.432432 1.2286559999999997 L 0.09609599999999999 1.2286559999999997 L 0.09609599999999999 0.018875999999999893 L 0.502788 0.018875999999999893 L 0.8065199999999999 0.8048039999999999 L 1.1033879999999998 0.018875999999999893 L 1.5083639999999998 0.018875999999999893 M 1.9682478105468746 1.1608739999999997 Q 1.8258198105468746 1.0810799999999998 1.7425938105468748 0.9395099999999998 Q 1.6593678105468748 0.7979399999999998 1.6593678105468748 0.6194759999999998 Q 1.6593678105468748 0.44101199999999985 1.7425938105468748 0.2994419999999999 Q 1.8258198105468746 0.1578719999999998 1.9682478105468746 0.0789359999999999 Q 2.1106758105468746 -2.220446049250313e-16 2.2805598105468747 -2.220446049250313e-16 Q 2.4521598105468745 -2.220446049250313e-16 2.5937298105468747 0.0789359999999999 Q 2.7352998105468744 0.1578719999999998 2.8176678105468747 0.2994419999999999 Q 2.900035810546875 0.44101199999999985 2.900035810546875 0.6194759999999998 Q 2.900035810546875 0.7979399999999998 2.8176678105468747 0.9395099999999998 Q 2.7352998105468744 1.0810799999999998 2.5928718105468747 1.1608739999999997 Q 2.450443810546875 1.2406679999999997 2.2805598105468747 1.2406679999999997 Q 2.1106758105468746 1.2406679999999997 1.9682478105468746 1.1608739999999997 M 2.4839058105468745 0.8442719999999998 Q 2.5585518105468745 0.7601879999999999 2.5585518105468745 0.6194759999999998 Q 2.5585518105468745 0.47533199999999975 2.4839058105468745 0.39210599999999984 Q 2.4092598105468745 0.3088799999999998 2.2805598105468747 0.3088799999999998 Q 2.150143810546875 0.3088799999999998 2.0763558105468745 0.39210599999999984 Q 2.0025678105468745 0.47533199999999975 2.0025678105468745 0.6194759999999998 Q 2.0025678105468745 0.7619039999999998 2.0763558105468745 0.8451299999999997 Q 2.150143810546875 0.9283559999999997 2.2805598105468747 0.9283559999999997 Q 2.4092598105468745 0.9283559999999997 2.4839058105468745 0.8442719999999998 M 4.228198025390624 0.018875999999999893 L 3.8112100253906243 1.2286559999999997 L 3.3804940253906244 1.2286559999999997 L 2.9617900253906244 0.018875999999999893 L 3.3221500253906244 0.018875999999999893 L 3.596710025390624 0.8923199999999998 L 3.869554025390624 0.018875999999999893 L 4.228198025390624 0.018875999999999893 M 4.669225945312499 0.018875999999999893 L 4.669225945312499 1.2286559999999997 L 4.332889945312499 1.2286559999999997 L 4.332889945312499 0.018875999999999893 L 4.669225945312499 0.018875999999999893 M 5.197725457031249 0.2882879999999999 L 5.197725457031249 0.48562799999999984 L 5.583825457031249 0.48562799999999984 L 5.583825457031249 0.7413119999999997 L 5.197725457031249 0.7413119999999997 L 5.197725457031249 0.9592439999999998 L 5.635305457031249 0.9592439999999998 L 5.635305457031249 1.2286559999999997 L 4.861389457031249 1.2286559999999997 L 4.861389457031249 0.018875999999999893 L 5.635305457031249 0.018875999999999893 L 5.635305457031249 0.2882879999999999 L 5.197725457031249 0.2882879999999999 M 6.621960210937498 0.018875999999999893 L 6.621960210937498 0.2865719999999998 L 6.138048210937499 0.2865719999999998 L 6.138048210937499 0.4993559999999998 L 6.494976210937499 0.4993559999999998 L 6.494976210937499 0.7550399999999997 L 6.138048210937499 0.7550399999999997 L 6.138048210937499 1.2286559999999997 L 5.801712210937499 1.2286559999999997 L 5.801712210937499 0.018875999999999893 L 6.621960210937498 0.018875999999999893 M 7.100679802734374 0.9712559999999998 L 7.476483802734373 0.9712559999999998 L 7.476483802734373 1.2286559999999997 L 6.764343802734373 1.2286559999999997 L 6.764343802734373 0.018875999999999893 L 7.100679802734374 0.018875999999999893 L 7.100679802734374 0.9712559999999998 M 7.943283562499999 0.018875999999999893 L 7.943283562499999 1.2286559999999997 L 7.6069475624999985 1.2286559999999997 L 7.6069475624999985 0.018875999999999893 L 7.943283562499999 0.018875999999999893 M 8.892203074218749 1.2286559999999997 L 8.657111074218749 0.8871719999999998 L 8.456339074218748 1.2286559999999997 L 8.073671074218748 1.2286559999999997 L 8.466635074218749 0.6091799999999998 L 8.059943074218749 0.018875999999999893 L 8.456339074218748 0.018875999999999893 L 8.684567074218748 0.35177999999999987 L 8.880191074218748 0.018875999999999893 L 9.262859074218749 0.018875999999999893 L 8.875043074218748 0.6280559999999998 L 9.288599074218748 1.2286559999999997 L 8.892203074218749 1.2286559999999997" fill="url(#gradient-43940618-1bb8-4648-879f-85600595fcd2)" fill-rule="nonzero"></path></g><g><path d=" M 0.030465375 2.0031613349999997 Q 0.01779 1.99137546 0.01779 1.97403021 Q 0.01779 1.95624021 0.030465375 1.94423196 Q 0.04314075 1.93222371 0.0631545 1.93222371 Q 0.0827235 1.93222371 0.095398875 1.94423196 Q 0.10807425 1.95624021 0.10807425 1.97403021 Q 0.10807425 1.99137546 0.095398875 2.0031613349999997 Q 0.0827235 2.01494721 0.0631545 2.01494721 Q 0.04314075 2.01494721 0.030465375 2.0031613349999997 M 1.998505346176758 1.6991747099999999 L 1.917116096176758 2.01138921 L 1.825052846176758 2.01138921 L 1.775240846176758 1.80591471 L 1.723649846176758 2.01138921 L 1.631586596176758 2.01138921 L 1.552421096176758 1.6991747099999999 L 1.633810346176758 1.6991747099999999 L 1.678730096176758 1.92644196 L 1.7343238461767578 1.6991747099999999 L 1.817936846176758 1.6991747099999999 L 1.871306846176758 1.92644196 L 1.916671346176758 1.6991747099999999 L 1.998505346176758 1.6991747099999999 M 2.514376187329101 1.95624021 L 2.3978516873291014 1.95624021 L 2.379172187329101 2.01138921 L 2.299561937329101 2.01138921 L 2.4125284373291014 1.6991747099999999 L 2.5005889373291015 1.6991747099999999 L 2.6135554373291012 2.01138921 L 2.5330556873291012 2.01138921 L 2.514376187329101 1.95624021 M 2.4948071873291013 1.89753321 L 2.456113937329101 1.78323246 L 2.4178654373291013 1.89753321 L 2.4948071873291013 1.89753321 M 3.155665442666015 1.6991747099999999 L 3.155665442666015 1.76010546 L 3.072941942666015 1.76010546 L 3.072941942666015 2.01138921 L 2.996889692666015 2.01138921 L 2.996889692666015 1.76010546 L 2.914166192666015 1.76010546 L 2.914166192666015 1.6991747099999999 L 3.155665442666015 1.6991747099999999 M 3.4842971853076166 1.7723360849999998 Q 3.5043109353076165 1.73608896 3.540113310307617 1.715852835 Q 3.5759156853076166 1.69561671 3.6212801853076164 1.69561671 Q 3.6768739353076167 1.69561671 3.7164566853076164 1.72497021 Q 3.7560394353076165 1.75432371 3.769381935307617 1.80502521 L 3.6857689353076166 1.80502521 Q 3.6764291853076165 1.78545621 3.6593063103076164 1.77522696 Q 3.642183435307617 1.7649977099999998 3.6203906853076164 1.7649977099999998 Q 3.5852554353076167 1.7649977099999998 3.563462685307617 1.78945896 Q 3.5416699353076164 1.81392021 3.5416699353076164 1.85483721 Q 3.5416699353076164 1.89575421 3.563462685307617 1.9202154599999999 Q 3.5852554353076167 1.94467671 3.6203906853076164 1.94467671 Q 3.642183435307617 1.94467671 3.6593063103076164 1.93444746 Q 3.6764291853076165 1.9242182099999998 3.6857689353076166 1.9046492099999999 L 3.769381935307617 1.9046492099999999 Q 3.7560394353076165 1.9553507099999998 3.7164566853076164 1.984481835 Q 3.6768739353076167 2.01361296 3.6212801853076164 2.01361296 Q 3.5759156853076166 2.01361296 3.540113310307617 1.9933768349999998 Q 3.5043109353076165 1.97314071 3.4842971853076166 1.9371159599999999 Q 3.4642834353076166 1.90109121 3.4642834353076166 1.85483721 Q 3.4642834353076166 1.8085832099999999 3.4842971853076166 1.7723360849999998 M 4.369765048798827 1.6991747099999999 L 4.369765048798827 2.01138921 L 4.293712798798827 2.01138921 L 4.293712798798827 1.88285646 L 4.175409298798828 1.88285646 L 4.175409298798828 2.01138921 L 4.099357048798828 2.01138921 L 4.099357048798828 1.6991747099999999 L 4.175409298798828 1.6991747099999999 L 4.175409298798828 1.82148096 L 4.293712798798827 1.82148096 L 4.293712798798827 1.6991747099999999 L 4.369765048798827 1.6991747099999999 M 5.161336953515624 1.6991747099999999 L 5.161336953515624 2.01138921 L 5.085284703515624 2.01138921 L 5.085284703515624 1.6991747099999999 L 5.161336953515624 1.6991747099999999 M 5.724342825307616 1.6991747099999999 L 5.724342825307616 1.76010546 L 5.641619325307616 1.76010546 L 5.641619325307616 2.01138921 L 5.565567075307616 2.01138921 L 5.565567075307616 1.76010546 L 5.482843575307616 1.76010546 L 5.482843575307616 1.6991747099999999 L 5.724342825307616 1.6991747099999999 M 6.702703215131835 2.01138921 L 6.626650965131835 2.01138921 L 6.499452465131835 1.81881246 L 6.499452465131835 2.01138921 L 6.423400215131835 2.01138921 L 6.423400215131835 1.6991747099999999 L 6.499452465131835 1.6991747099999999 L 6.626650965131835 1.89264096 L 6.626650965131835 1.6991747099999999 L 6.702703215131835 1.6991747099999999 L 6.702703215131835 2.01138921 M 7.108059110361327 1.99404396 Q 7.071367235361326 1.97358546 7.049796860361327 1.936893585 Q 7.028226485361326 1.90020171 7.028226485361326 1.85439246 Q 7.028226485361326 1.8085832099999999 7.049796860361327 1.77211371 Q 7.071367235361326 1.7356442099999998 7.108059110361327 1.7151857099999999 Q 7.144750985361327 1.69472721 7.1887812353613265 1.69472721 Q 7.232811485361327 1.69472721 7.269503360361327 1.7151857099999999 Q 7.306195235361327 1.7356442099999998 7.3273208603613265 1.77211371 Q 7.348446485361327 1.8085832099999999 7.348446485361327 1.85439246 Q 7.348446485361327 1.90020171 7.327098485361327 1.936893585 Q 7.305750485361327 1.97358546 7.269280985361327 1.99404396 Q 7.232811485361327 2.01450246 7.1887812353613265 2.01450246 Q 7.144750985361327 2.01450246 7.108059110361327 1.99404396 M 7.248600110361327 1.9202154599999999 Q 7.271059985361327 1.89530946 7.271059985361327 1.85439246 Q 7.271059985361327 1.81303071 7.248600110361327 1.7883470849999998 Q 7.226140235361327 1.7636634599999998 7.1887812353613265 1.7636634599999998 Q 7.150977485361326 1.7636634599999998 7.128517610361326 1.78812471 Q 7.106057735361326 1.8125859599999998 7.106057735361326 1.85439246 Q 7.106057735361326 1.89575421 7.128517610361326 1.920437835 Q 7.150977485361326 1.94512146 7.1887812353613265 1.94512146 Q 7.226140235361327 1.94512146 7.248600110361327 1.9202154599999999 M 8.103596735449218 1.6991747099999999 L 8.022207485449218 2.01138921 L 7.930144235449218 2.01138921 L 7.880332235449218 1.80591471 L 7.828741235449217 2.01138921 L 7.736677985449218 2.01138921 L 7.657512485449217 1.6991747099999999 L 7.738901735449217 1.6991747099999999 L 7.783821485449217 1.92644196 L 7.839415235449218 1.6991747099999999 L 7.923028235449218 1.6991747099999999 L 7.976398235449218 1.92644196 L 8.021762735449217 1.6991747099999999 L 8.103596735449218 1.6991747099999999" fill="#e9e9e5" fill-rule="nonzero"></path></g><g clip-path="url(#SvgjsClipPath1382)"><g clip-path="url(#SvgjsClipPath1380a16b5a89-c9de-4d7b-a364-d646e513d7c2)"><path d=" M -0.8599759272210719 1.0103477400448158 L -0.8599759272210719 1.0868411935959152 L -0.9639981078636548 1.0868411935959152 L -0.9639981078636548 0.9477672531546616 C -0.7228870152496931 0.9145346193062387 -0.5432683343013776 0.708494896290124 -0.5432283871644057 0.46510433497307535 C -0.5432283871644057 0.19597223988054627 -0.7614030576035786 -0.022202430558626363 -1.0305351526961073 -0.022202430558626363 C -1.2796725620116465 -0.022191169540888147 -1.4886833407628264 0.16573104179201698 -1.51509276059654 0.4134647524397927 C -1.5415192170542595 0.16573229991415042 -1.7505309795365034 -0.022183592187607643 -1.9996689438863737 -0.022202430558626363 C -2.128910733715754 -0.022202430558626363 -2.2528591163108826 0.029138670546485203 -2.3442468623119233 0.12052641654752608 C -2.4356346083129643 0.21191416254856693 -2.486975709418076 0.3358625451436957 -2.486975709418076 0.46510433497307574 C -2.486925017882473 0.6990753616049288 -2.3206207582539196 0.8999987272747091 -2.090781228895776 0.9437735444335361 L -2.090781228895776 1.0292203356756842 L -2.201694879005791 1.0292203356756842 L -2.25238711667965 1.0077657609181516 L -2.25238711667965 1.2098474222057698 L -2.201694879005791 1.1884114228376372 L -2.0907812288956364 1.1884114228376372 L -2.0907812288956364 1.358970648312673 L -1.8610222374013305 1.358970648312673 L -1.8610222374013305 1.4385661918936494 L -1.7291369726580557 1.4385661918936494 L -1.784547359239632 1.46195260714883 C -1.8179830601604623 1.4572716090199136 -1.8859875607555512 1.4725963052752946 -1.9311257569986715 1.491673230189568 C -1.989731110557127 1.5164156488709821 -2.004907203697304 1.5453189547781 -1.9949693703680573 1.568872548537885 C -1.9850315370388105 1.59242614229767 -1.953750581288434 1.6016952616085 -1.8951266523405779 1.576952842927086 C -1.8499884560974569 1.5578944934022123 -1.7915874318224065 1.5198892466888685 -1.7716003128275104 1.4926391504383922 L -1.6981532231380863 1.4616368255290222 L -1.6834043639541199 1.509096945447201 L -2.0907069273380343 2.033610215948026 L -1.946710508705658 2.033610215948026 L -1.584137482998054 1.5664391725264246 L -1.584137482998054 2.033610215948026 L -1.4704932506460322 2.033610215948026 L -1.4704932506460322 1.5664020217476247 L -1.1079202249384281 2.033573065169226 L -0.9639238063060522 2.033573065169226 L -1.3712263696899674 1.5089669177213982 L -1.3493445609762242 1.4385476165042492 L -1.1936642224109582 1.4385476165042492 L -1.1936642224109582 1.358952072923273 L -0.9638866555272521 1.358952072923273 L -0.9638866555272521 1.215698669866915 L -0.8598644748846687 1.215698669866915 L -0.8598644748846687 1.2791522000588906 L -0.38990712305299846 1.4611910161834114 L -0.38990712305299846 0.8283274993096953 Z M -1.9076278894070882 0.9435877905395577 C -1.6971733859685152 0.9030483812291252 -1.5378784802088674 0.7298155481199795 -1.51509276059654 0.5167067667275564 C -1.4923162727244543 0.7297831528236545 -1.3330656999608836 0.9030012226919204 -1.1226505087329948 0.9435692151501572 Z" fill="#d48044" transform="matrix(1,0,0,1,0,0)" fill-rule="nonzero"></path></g></g></g><defs><linearGradient id="gradient-43940618-1bb8-4648-879f-85600595fcd2" y1="0" x1="0" y2="1" x2="1"><stop stop-color="#e9ae3f" offset="0"></stop><stop stop-color="#bd2949" offset="1"></stop></linearGradient><clipPath id="SvgjsClipPath1382"><path d=" M -2.486975709418075 -0.022202430558626363 h 2.096975709418075 v 2.0557940711172527 h -2.096975709418075 Z"></path></clipPath><clipPath id="SvgjsClipPath1380a16b5a89-c9de-4d7b-a364-d646e513d7c2"><path d=" M -2.486975709418075 -0.022202430558626363 L -0.3900000000000001 -0.022202430558626363 L -0.3900000000000001 2.033591640558626 L -2.486975709418075 2.033591640558626 Z"></path></clipPath></defs></svg>